<?xml version="1.0" encoding="utf-8"?>
<!-- Generator: Adobe Illustrator 15.0.0, SVG Export Plug-In . SVG Version: 6.00 Build 0)  -->
<!DOCTYPE svg PUBLIC "-//W3C//DTD SVG 1.0//EN" "http://www.w3.org/TR/2001/REC-SVG-20010904/DTD/svg10.dtd">
<svg version="1.0" id="Ebene_1" xmlns="http://www.w3.org/2000/svg" xmlns:xlink="http://www.w3.org/1999/xlink" x="0px" y="0px"
	 width="235px" height="316px" viewBox="0 0 235 316" enable-background="new 0 0 235 316" xml:space="preserve">
<g>
	<path fill-rule="evenodd" clip-rule="evenodd" d="M-173.341,25.02c10.012-1.019,15.345-1.519,23.998,0
		c51.746,8.769,83.83,49.269,82.99,95.988c-0.762,42.286-30.678,77.124-63.992,87.989c-2.539,0.828-6.514,1.068-8.818,2.504
		c-0.328,0.205-2,1-2,1s-1.166,2.334-3.1,6.217c-1.336,2.678-8.146,7.525-12.08,8.277c-29.27,5.6-32.216-38.238-4.999-37.996
		c4.004,0.037,8.711,2.057,11.999,4c4.514,2.67,4.98,8.488,6.998,8.998c1.77,0.449,12.57-4.451,15.998-5.998
		c29.67-13.381,54.141-45.583,48.994-87.989c-2.299-18.959-11.754-35.87-20.996-45.995c-12.688-13.894-32.006-24.992-54.994-26.997
		c-53.064-4.627-91.593,36.703-91.989,83.99c-0.283,33.952,18.673,59.014,38.996,71.99c4.023,2.57,8.141,3.131,12.998,6
		c0.1,0.059,6.999,2,6.999,2l-1.674,9.889c0,0-1.092,0.627-3.325,0.109c-1.078-0.248-3.192-1.316-5-2
		c-33.83-12.775-62.309-48.686-58.992-94.987C-251.815,62.938-215.504,33.555-173.341,25.02z"/>
	<path fill-rule="evenodd" clip-rule="evenodd" d="M-84.352,110.009c-4.031-39.041-37.344-66.335-75.99-66.992
		c-37.471-0.636-73.002,26.612-76.991,66.992c-2.902,29.381,7.899,50.956,23.996,65.991c2.849,2.66,7.629,5.254,13.998,9
		c4.372,2.57,11.454,8.324,14.999,7.998c0.474-0.043,0.868-0.129,1.213-0.24c2.302-3.281,4.551-6.66,7.521-9.064
		c-30.118-6.986-52.982-31.436-51.729-66.686c1.271-35.705,28.66-61.551,60.992-63.992c38.459-2.903,66.815,25.037,70.991,55.993
		c4.734,35.081-15.32,66.22-51.443,74.851c1.115,1.078,2.117,2.281,3.182,3.424c0.467,0.502,0.877,1.107,1.299,1.707
		c1.893,1.82,3.152,3.26,3.152,3.26s3.809-1.014,8.816-3.252c9.959-4.449,19.229-10.064,24.996-15.997
		C-93.086,160.389-81.598,136.685-84.352,110.009z"/>
	<path fill-rule="evenodd" clip-rule="evenodd" d="M-141.346,92.011c5.033,6.633,9.281,14.05,8,26.997
		c-2.584-1.488-7.514,2.033-10,0c-1.125-0.922-0.297-10.886-0.998-13.998c-2.051-9.093-4.813-12.437-12-15.998
		c1.451,8.882,0.941,19.724,1,29.996c-3.998,0-7.999,0-11.998,0c0.394-10.271,0.498-20.833,1.999-29.996
		c-10.816,2.848-12.918,14.411-11.998,28.996c-4,0-7.999,0-11.999,0c-0.668-13,4.002-20.662,9.999-26.997
		c-11.943,4.055-18.997,12.999-19.998,27.997c-3.999,0-7.998,0-11.998,0c3.94-22.39,18.584-34.995,44.715-35.195
		c-1.28-1.824-3.444-5.231-1.72-8.8c1.25-2.586,1.908-3.727,4.751-4.481c0.104-0.028,1.938-0.266,1.938-0.266l-0.031-3.609h-3.672
		l0.016-1.895l3.656,0.004l-0.016-2.891l2.297-0.007l0.031,2.882l3.063,0.031v1.876l-3.078-0.001v3.609c0,0,0.281,0.02,0.385,0.043
		c3.682,0.854,8.883,7.095,3.658,13.703c26.012,0.651,41.771,11.556,44.994,34.996c-3.998,0-7.998,0-11.998,0
		C-121.912,103.242-130.711,96.708-141.346,92.011z"/>
	<path fill-rule="evenodd" clip-rule="evenodd" d="M-181.34,127.007c6.608-0.735,9.223,11.431,1,11.999c-3.02,0.208-4.999-3-4.999-3
		s-3.293,3.844-6.999,3c-4.695-1.07-6.416-11.183,2-10.999C-196.39,117.836-175.968,116.666-181.34,127.007z"/>
	<path fill-rule="evenodd" clip-rule="evenodd" d="M-211.247,119.628c1.365,0.306,6.375-0.377,7.438,2.185
		c1.219,2.94-1.75,5.938-1.75,5.938s3.622,0.555,4.438,3.813c0.796,3.179-1.752,6.892-4.623,6.563
		C-207.622,131.188-209.122,127.188-211.247,119.628z"/>
	<path fill-rule="evenodd" clip-rule="evenodd" d="M-156.344,127.007c3.578,0.156,5.322,2.959,5.494,5.803
		c0.238,3.907-2.488,7.892-7.494,5.196c0.021,0.011-1.998-2-1.998-2s-2.03,2.932-6,3c-2.832,0.048-3.904-2.567-4.217-5.13
		c-0.317-2.606,1.125-4.75,5.217-5.869c-3.661-5.489,0.682-7.945,4.721-7.706C-157.055,120.513-153.725,122.825-156.344,127.007z"/>
	<path fill-rule="evenodd" clip-rule="evenodd" d="M-131.346,127.007c3.488-0.604,5.434,2.751,5.461,6.119
		c0.027,3.72-2.361,7-7.461,5.88c-0.289-0.063-2.65-2.317-2.65-2.317s-3.281,3.749-6.563,2.375c-3.166-1.325-3.293-3.794-3.5-6.063
		c-0.229-2.497,1.043-4.808,5.713-4.994c-3.361-5.29,0.318-7.715,4.1-7.69C-132.559,120.341-128.775,122.699-131.346,127.007z"/>
	<path fill-rule="evenodd" clip-rule="evenodd" d="M-205.747,138.813c1.777-0.005,1.779,4.488,4.409,4.192
		c2.917,0.25,3.403-2.004,5.028-4.004c1.563,2.063,3.77,3.938,5.75,3.938c1.875,0,3.25-1.938,4.625-4
		c1.875,2,3.616,4.074,5.875,4.125c2.684,0.06,5.282-1.88,6.688-4.063c1.282,2.058,3.813,4.063,6.03,4.004
		c2.897-0.076,5.253-1.947,6.658-4.067c1.096,2.183,4.121,4.042,5.563,4.125c3.25,0.188,4.688-2,6.777-4.058
		c1.598,2.058,3.66,3.933,5.848,3.995c3.563,0,4-2,6.15-3.995c1.662,2.058,2.596,3.995,4.975,3.995s3.313-1.813,5.023-3.995
		c1.414,2.058,1.43,3.903,4,4c3.664,0.183,2.828-1.384,3.789-3.129c0.438-1,0.785-0.696,0.785-0.696l-4.574,15.824h-77.99
		C-200.337,155.003-205.09,141.056-205.747,138.813z"/>
	<polygon fill-rule="evenodd" clip-rule="evenodd" points="-190.338,218.994 -220.334,236.992 -217.335,228.994 -234.164,234.668 
		-233.87,228.012 -207.336,216.994 -208.831,222.168 -193.899,216.605 	"/>
	<polygon fill-rule="evenodd" clip-rule="evenodd" points="-116.348,221.994 -117.348,216.994 -90.109,227.77 -87.352,233.992 
		-105.35,228.994 -103.35,236.992 -133.346,219.994 -128.336,216.574 	"/>
	<polygon fill-rule="evenodd" clip-rule="evenodd" points="-182.339,232.992 -209.336,268.988 -209.336,258.99 -230.334,273.988 
		-230.334,260.258 -202.337,239.992 -202.337,244.992 -188.164,230.834 	"/>
	<polygon fill-rule="evenodd" clip-rule="evenodd" points="-122.348,244.992 -121.348,239.992 -100.35,256.99 -93.992,263.5 
		-93.352,273.988 -114.348,257.99 -114.348,268.988 -142.164,232.695 -134.092,232.695 	"/>
	<path fill-rule="evenodd" clip-rule="evenodd" d="M-167.164,236l-5.862,36.051l-5.638-8.551c0,0-5.745,15.086-8.676,21.486
		c-3.253-2.18-4.898-7.555-4.898-7.555l9.898-28.441l2.999,3l6.5-14.998L-167.164,236z"/>
	<polygon fill-rule="evenodd" clip-rule="evenodd" points="-155.758,238.258 -149.508,238.451 -145.344,252.99 -141.346,248.99 
		-131.365,275.23 -136.346,284.986 -143.346,265.988 -149.344,273.988 	"/>
	<path fill-rule="evenodd" clip-rule="evenodd" d="M-110.689,119.632c-1.381,0.226-6.342-0.75-7.553,1.746
		c-1.389,2.863,1.398,6.03,1.398,6.03s-3.648,0.342-4.652,3.546c-0.98,3.127,1.346,6.982,4.23,6.823
		C-114.986,130.96-113.254,127.055-110.689,119.632z"/>
</g>
<g>
	<path fill-rule="evenodd" clip-rule="evenodd" fill="#EA5B0C" d="M102.658,26.02c10.012-1.019,15.346-1.519,23.998,0
		c51.746,8.769,83.83,49.269,82.99,95.988c-0.762,42.286-30.678,77.124-63.992,87.989c-2.539,0.828-6.514,1.068-8.818,2.504
		c-0.328,0.205-2,1-2,1s-1.166,2.334-3.1,6.217c-1.336,2.678-8.146,7.525-12.08,8.277c-29.27,5.6-32.217-38.238-4.998-37.996
		c4.004,0.037,8.711,2.057,11.998,4c4.514,2.67,4.98,8.488,6.998,8.998c1.77,0.449,12.57-4.451,15.998-5.998
		c29.67-13.381,54.141-45.583,48.994-87.989c-2.299-18.959-11.754-35.87-20.996-45.995c-12.688-13.894-32.006-24.992-54.994-26.997
		c-53.064-4.627-91.594,36.703-91.988,83.99c-0.283,33.952,18.672,59.014,38.996,71.99c4.023,2.57,8.141,3.131,12.998,6
		c0.1,0.059,6.998,2,6.998,2l-1.674,9.889c0,0-1.092,0.627-3.324,0.109c-1.078-0.248-3.193-1.316-5-2
		c-33.83-12.775-62.309-48.686-58.992-94.987C24.186,63.938,60.496,34.555,102.658,26.02z"/>
	<path fill-rule="evenodd" clip-rule="evenodd" fill="#EA5B0C" d="M191.648,111.009c-4.031-39.041-37.344-66.335-75.99-66.992
		c-37.471-0.636-73.002,26.612-76.99,66.992C35.766,140.39,46.566,161.965,62.664,177c2.848,2.66,7.629,5.254,13.998,9
		c4.371,2.57,11.453,8.324,14.998,7.998c0.475-0.043,0.869-0.129,1.213-0.24c2.303-3.281,4.551-6.66,7.521-9.064
		c-30.119-6.986-52.982-31.436-51.729-66.686c1.271-35.705,28.66-61.551,60.992-63.992c38.459-2.903,66.814,25.037,70.99,55.993
		c4.734,35.081-15.32,66.22-51.443,74.851c1.115,1.078,2.117,2.281,3.182,3.424c0.467,0.502,0.877,1.107,1.299,1.707
		c1.893,1.82,3.152,3.26,3.152,3.26s3.809-1.014,8.816-3.252c9.959-4.449,19.229-10.064,24.996-15.997
		C182.914,161.389,194.402,137.685,191.648,111.009z"/>
	<path fill-rule="evenodd" clip-rule="evenodd" fill="#EA5B0C" d="M134.654,93.011c5.033,6.633,9.281,14.05,8,26.997
		c-2.584-1.488-7.514,2.033-10,0c-1.125-0.922-0.297-10.886-0.998-13.998c-2.051-9.093-4.813-12.437-12-15.998
		c1.451,8.882,0.941,19.724,1,29.996c-3.998,0-7.998,0-11.998,0c0.395-10.271,0.498-20.833,2-29.996
		C99.842,92.86,97.74,104.423,98.66,119.008c-4,0-8,0-12,0c-0.668-13,4.002-20.662,10-26.997
		c-11.943,4.055-18.998,12.999-19.998,27.997c-4,0-7.998,0-11.998,0c3.939-22.39,18.584-34.995,44.715-35.195
		c-1.281-1.824-3.445-5.231-1.721-8.8c1.25-2.586,1.908-3.727,4.752-4.481c0.104-0.028,1.938-0.266,1.938-0.266l-0.031-3.609h-3.672
		l0.016-1.895l3.656,0.004l-0.016-2.891l2.297-0.007l0.031,2.882l3.063,0.031v1.876l-3.078-0.001v3.609c0,0,0.281,0.02,0.385,0.043
		c3.682,0.854,8.883,7.095,3.658,13.703c26.012,0.651,41.771,11.556,44.994,34.996c-3.998,0-7.998,0-11.998,0
		C154.088,104.242,145.289,97.708,134.654,93.011z"/>
	<path fill-rule="evenodd" clip-rule="evenodd" fill="#EA5B0C" d="M94.66,128.007c6.607-0.735,9.223,11.431,1,11.999
		c-3.02,0.208-5-3-5-3s-3.293,3.844-6.998,3c-4.695-1.07-6.416-11.183,2-10.999C79.609,118.836,100.031,117.666,94.66,128.007z"/>
	<path fill-rule="evenodd" clip-rule="evenodd" fill="#EA5B0C" d="M64.754,120.628c1.365,0.306,6.375-0.377,7.438,2.185
		c1.219,2.94-1.75,5.938-1.75,5.938s3.621,0.555,4.438,3.813c0.795,3.179-1.752,6.892-4.623,6.563
		C68.379,132.188,66.879,128.188,64.754,120.628z"/>
	<path fill-rule="evenodd" clip-rule="evenodd" fill="#EA5B0C" d="M119.656,128.007c3.578,0.156,5.322,2.959,5.494,5.803
		c0.238,3.907-2.488,7.892-7.494,5.196c0.021,0.011-1.998-2-1.998-2s-2.029,2.932-6,3c-2.832,0.048-3.904-2.567-4.217-5.13
		c-0.318-2.606,1.125-4.75,5.217-5.869c-3.662-5.489,0.682-7.945,4.721-7.706C118.945,121.513,122.275,123.825,119.656,128.007z"/>
	<path fill-rule="evenodd" clip-rule="evenodd" fill="#EA5B0C" d="M144.654,128.007c3.488-0.604,5.434,2.751,5.461,6.119
		c0.027,3.72-2.361,7-7.461,5.88c-0.289-0.063-2.65-2.317-2.65-2.317s-3.281,3.749-6.563,2.375c-3.166-1.325-3.293-3.794-3.5-6.063
		c-0.229-2.497,1.043-4.808,5.713-4.994c-3.361-5.29,0.318-7.715,4.1-7.69C143.441,121.341,147.225,123.699,144.654,128.007z"/>
	<path fill-rule="evenodd" clip-rule="evenodd" fill="#EA5B0C" d="M70.254,139.813c1.777-0.005,1.779,4.488,4.408,4.192
		c2.918,0.25,3.404-2.004,5.029-4.004c1.563,2.063,3.77,3.938,5.75,3.938c1.875,0,3.25-1.938,4.625-4
		c1.875,2,3.615,4.074,5.875,4.125c2.684,0.06,5.281-1.88,6.688-4.063c1.281,2.058,3.813,4.063,6.029,4.004
		c2.898-0.076,5.254-1.947,6.658-4.067c1.096,2.183,4.121,4.042,5.563,4.125c3.25,0.188,4.688-2,6.777-4.058
		c1.598,2.058,3.66,3.933,5.848,3.995c3.563,0,4-2,6.15-3.995c1.662,2.058,2.596,3.995,4.975,3.995s3.313-1.813,5.023-3.995
		c1.414,2.058,1.43,3.903,4,4c3.664,0.183,2.828-1.384,3.789-3.129c0.438-1,0.785-0.696,0.785-0.696l-4.574,15.824h-77.99
		C75.662,156.003,70.91,142.056,70.254,139.813z"/>
	<polygon fill-rule="evenodd" clip-rule="evenodd" fill="#EA5B0C" points="85.662,219.994 55.666,237.992 58.664,229.994 
		41.836,235.668 42.131,229.012 68.664,217.994 67.17,223.168 82.102,217.605 	"/>
	<polygon fill-rule="evenodd" clip-rule="evenodd" fill="#EA5B0C" points="159.652,222.994 158.652,217.994 185.891,228.77 
		188.648,234.992 170.65,229.994 172.65,237.992 142.654,220.994 147.664,217.574 	"/>
	<polygon fill-rule="evenodd" clip-rule="evenodd" fill="#EA5B0C" points="93.66,233.992 66.664,269.988 66.664,259.99 
		45.666,274.988 45.666,261.258 73.662,240.992 73.662,245.992 87.836,231.834 	"/>
	<polygon fill-rule="evenodd" clip-rule="evenodd" fill="#EA5B0C" points="153.652,245.992 154.652,240.992 175.65,257.99 
		182.008,264.5 182.648,274.988 161.652,258.99 161.652,269.988 133.836,233.695 141.908,233.695 	"/>
	<path fill-rule="evenodd" clip-rule="evenodd" fill="#EA5B0C" d="M108.836,237l-5.861,36.051l-5.639-8.551
		c0,0-5.744,15.086-8.676,21.486c-3.252-2.18-4.898-7.555-4.898-7.555l9.898-28.441l3,3l6.5-14.998L108.836,237z"/>
	<polygon fill-rule="evenodd" clip-rule="evenodd" fill="#EA5B0C" points="120.242,239.258 126.492,239.451 130.656,253.99 
		134.654,249.99 144.635,276.23 139.654,285.986 132.654,266.988 126.656,274.988 	"/>
	<path fill-rule="evenodd" clip-rule="evenodd" fill="#EA5B0C" d="M165.311,120.632c-1.381,0.226-6.342-0.75-7.553,1.746
		c-1.389,2.863,1.398,6.03,1.398,6.03s-3.648,0.342-4.652,3.546c-0.98,3.127,1.346,6.982,4.23,6.823
		C161.014,131.96,162.746,128.055,165.311,120.632z"/>
</g>
</svg>
